<?xml version="1.0" standalone="no"?>
<!DOCTYPE svg PUBLIC "-//W3C//DTD SVG 20010904//EN"
 "http://www.w3.org/TR/2001/REC-SVG-20010904/DTD/svg10.dtd">
<svg version="1.0" xmlns="http://www.w3.org/2000/svg"
 width="2048.000000pt" height="2048.000000pt" viewBox="0 0 2048.000000 2048.000000"
 preserveAspectRatio="xMidYMid meet">
<metadata>
Created by potrace 1.14, written by Peter Selinger 2001-2017
</metadata>
<g transform="translate(0.000000,2048.000000) scale(0.100000,-0.100000)"
fill="#000000" stroke="none">
<path d="M0 10240 l0 -10240 10240 0 10240 0 0 10240 0 10240 -10240 0 -10240
0 0 -10240z m11820 5690 c0 -5 7 -10 15 -10 8 0 15 -4 15 -9 0 -5 11 -12 25
-15 14 -4 25 -11 25 -16 0 -6 5 -10 10 -10 10 0 22 -8 55 -37 7 -7 16 -13 19
-13 11 0 96 -64 96 -72 0 -4 7 -8 15 -8 8 0 15 -4 15 -10 0 -5 5 -10 10 -10 6
0 35 -18 65 -40 30 -22 57 -40 60 -40 3 0 16 -10 28 -23 12 -13 37 -32 55 -42
17 -11 32 -23 32 -27 0 -4 6 -8 14 -8 8 0 16 -7 20 -15 3 -8 12 -15 19 -15 8
0 25 -10 39 -22 30 -29 95 -78 101 -78 3 0 25 -18 48 -40 24 -22 47 -40 52
-40 4 0 24 -16 44 -35 20 -19 40 -35 44 -35 4 0 23 -15 42 -32 40 -37 53 -49
117 -98 25 -19 47 -38 48 -42 2 -5 10 -8 18 -8 8 0 14 -7 14 -15 0 -8 5 -15
10 -15 10 0 30 -16 90 -72 16 -16 32 -28 35 -28 3 0 22 -17 42 -37 19 -21 46
-45 59 -53 12 -9 41 -32 63 -53 22 -20 45 -37 51 -37 5 0 10 -5 10 -11 0 -6 6
-17 14 -25 8 -8 19 -14 25 -14 6 0 11 -7 11 -15 0 -8 5 -15 11 -15 6 0 17 -6
25 -14 8 -8 14 -19 14 -25 0 -6 5 -11 10 -11 6 0 27 -17 49 -37 313 -305 451
-447 451 -464 0 -5 7 -9 15 -9 8 0 15 -4 15 -9 0 -4 34 -43 75 -85 41 -42 75
-80 75 -85 0 -4 23 -31 50 -59 28 -28 50 -56 50 -62 0 -5 6 -10 13 -10 6 0 27
-22 44 -48 18 -26 45 -60 60 -77 16 -16 44 -50 63 -75 19 -25 38 -46 42 -48 5
-2 8 -10 8 -18 0 -8 4 -14 8 -14 5 0 24 -21 42 -47 19 -27 45 -59 57 -73 13
-14 23 -30 23 -37 0 -6 10 -20 23 -30 13 -10 26 -25 30 -33 11 -24 30 -52 55
-79 12 -14 22 -31 22 -37 0 -6 11 -21 25 -34 14 -13 25 -28 25 -34 0 -6 10
-23 23 -37 28 -32 46 -59 53 -81 4 -10 10 -18 15 -18 5 0 9 -6 9 -13 0 -7 10
-24 23 -37 12 -14 31 -42 41 -63 11 -20 23 -37 28 -37 4 0 8 -6 8 -14 0 -8 6
-21 13 -28 6 -7 21 -30 32 -50 11 -21 23 -38 27 -38 5 0 8 -9 8 -20 0 -11 7
-23 15 -26 8 -4 15 -12 15 -20 0 -15 18 -50 35 -69 6 -6 19 -29 30 -51 11 -21
23 -40 28 -42 4 -2 7 -10 7 -18 0 -8 10 -31 23 -52 13 -20 38 -66 56 -102 18
-36 42 -83 53 -105 11 -22 26 -53 33 -70 26 -62 50 -110 58 -113 4 -2 7 -15 7
-28 0 -13 4 -24 9 -24 5 0 12 -13 16 -30 4 -16 11 -32 16 -35 5 -4 9 -14 9
-24 0 -10 7 -24 15 -31 8 -7 15 -21 15 -31 0 -19 2 -26 33 -87 9 -19 17 -42
17 -53 0 -10 5 -19 10 -19 6 0 10 -7 10 -16 0 -9 6 -30 13 -47 8 -18 22 -57
32 -87 10 -30 22 -59 26 -64 5 -6 9 -22 9 -37 0 -15 4 -30 9 -33 5 -4 12 -24
16 -46 4 -22 11 -42 16 -46 5 -3 9 -18 9 -33 0 -15 7 -36 15 -47 8 -10 15 -33
15 -51 0 -17 5 -35 10 -38 6 -3 10 -21 10 -39 0 -18 7 -41 15 -52 8 -10 15
-35 15 -54 0 -20 4 -40 9 -45 5 -6 14 -37 20 -70 7 -33 16 -80 21 -105 5 -25
15 -76 23 -115 7 -38 16 -77 19 -85 4 -8 9 -42 12 -75 3 -33 12 -107 21 -165
9 -58 20 -161 25 -230 5 -69 13 -156 19 -195 13 -91 14 -531 0 -615 -6 -36
-14 -121 -19 -190 -5 -69 -16 -172 -25 -230 -9 -58 -19 -130 -21 -160 -3 -30
-9 -64 -14 -75 -5 -11 -14 -47 -20 -80 -24 -132 -29 -152 -45 -210 -9 -33 -19
-76 -22 -95 -3 -19 -12 -44 -19 -55 -8 -11 -14 -32 -14 -47 0 -15 -4 -30 -10
-33 -5 -3 -10 -18 -10 -33 0 -15 -7 -36 -15 -46 -8 -11 -15 -30 -15 -43 0 -13
-4 -23 -9 -23 -5 0 -12 -14 -16 -31 -6 -25 -2 -35 24 -60 17 -16 31 -33 31
-38 0 -4 20 -30 45 -57 25 -26 45 -51 45 -56 0 -4 8 -16 18 -26 26 -26 92
-121 92 -132 0 -6 6 -10 13 -10 6 0 19 -14 26 -32 8 -18 24 -41 36 -53 12 -11
25 -30 29 -42 4 -13 12 -23 17 -23 5 0 9 -5 9 -10 0 -6 5 -16 11 -23 19 -22
119 -180 119 -189 0 -4 5 -8 10 -8 6 0 10 -9 10 -20 0 -10 6 -23 13 -27 6 -4
21 -25 31 -45 11 -21 23 -38 28 -38 4 0 8 -11 8 -25 0 -14 4 -25 10 -25 5 0
12 -11 16 -25 3 -14 10 -25 14 -25 4 0 11 -11 14 -25 4 -14 11 -25 16 -25 6 0
10 -8 11 -17 0 -10 9 -31 20 -48 10 -16 21 -37 25 -45 6 -15 41 -93 73 -160 9
-19 19 -36 24 -38 4 -2 7 -12 7 -22 0 -10 7 -31 15 -46 8 -16 15 -37 15 -46 0
-10 5 -18 10 -18 6 0 10 -11 10 -24 0 -13 7 -29 15 -36 8 -7 15 -23 15 -36 0
-12 5 -26 10 -29 6 -3 10 -19 10 -34 0 -16 7 -34 15 -41 8 -7 15 -28 15 -46 0
-19 3 -34 8 -34 7 0 28 -67 38 -125 3 -16 9 -39 14 -50 18 -42 39 -150 62
-327 7 -53 16 -100 21 -104 4 -4 7 -116 7 -249 0 -133 -3 -245 -7 -249 -7 -7
-23 -101 -39 -226 -4 -25 -10 -49 -14 -55 -4 -5 -11 -26 -14 -45 -4 -19 -11
-44 -15 -55 -5 -11 -16 -45 -26 -75 -10 -30 -22 -61 -28 -68 -13 -17 -37 -15
-37 3 0 8 -4 15 -10 15 -5 0 -10 6 -10 13 0 7 -10 23 -23 37 -13 14 -43 52
-67 85 -25 33 -66 81 -92 107 -27 26 -48 50 -48 54 0 8 -176 180 -250 244 -29
25 -57 50 -64 56 -6 5 -19 13 -28 17 -10 3 -18 11 -18 17 0 5 -5 10 -10 10 -6
0 -23 11 -38 25 -15 14 -30 25 -34 25 -4 0 -18 9 -31 20 -24 21 -70 50 -117
72 -14 7 -29 18 -33 25 -4 7 -17 13 -27 13 -11 0 -20 5 -20 10 0 6 -9 10 -20
10 -11 0 -23 7 -26 15 -4 8 -17 15 -30 15 -13 0 -24 3 -24 8 0 4 -21 15 -48
25 -26 11 -73 30 -105 43 -32 13 -69 24 -82 24 -13 0 -26 4 -30 9 -3 6 -26 13
-50 17 -25 3 -48 10 -51 15 -3 5 -27 9 -53 9 -27 0 -65 7 -84 15 -45 19 -448
22 -494 4 -15 -6 -53 -15 -83 -19 -78 -12 -153 -31 -165 -41 -5 -5 -18 -9 -30
-9 -21 0 -109 -31 -121 -43 -4 -4 -20 -7 -36 -7 -15 0 -28 -4 -28 -10 0 -5 -6
-10 -12 -10 -7 0 -25 -6 -39 -14 -14 -7 -37 -16 -52 -20 -15 -3 -27 -11 -27
-16 0 -6 -11 -10 -25 -10 -14 0 -25 -4 -25 -10 0 -5 -11 -10 -25 -10 -14 0
-25 -3 -25 -8 0 -4 -24 -18 -52 -31 -58 -27 -292 -142 -348 -171 -19 -10 -42
-21 -50 -24 -8 -3 -22 -10 -30 -14 -8 -5 -24 -13 -35 -19 -11 -5 -33 -17 -50
-25 -16 -9 -61 -31 -100 -49 -38 -18 -71 -36 -73 -41 -2 -4 -12 -8 -23 -8 -11
0 -27 -4 -37 -9 -9 -5 -24 -12 -32 -15 -8 -3 -22 -10 -30 -15 -24 -15 -87 -41
-99 -41 -6 0 -11 -4 -11 -10 0 -5 -9 -10 -19 -10 -11 0 -34 -8 -53 -17 -61
-31 -68 -33 -87 -33 -11 0 -22 -4 -25 -9 -3 -5 -22 -12 -41 -15 -19 -4 -35
-11 -35 -16 0 -6 -13 -10 -29 -10 -16 0 -34 -7 -41 -15 -7 -8 -25 -15 -41 -15
-15 0 -31 -4 -34 -10 -3 -5 -19 -10 -34 -10 -15 0 -36 -7 -47 -15 -10 -8 -33
-15 -49 -15 -17 0 -35 -4 -40 -9 -11 -10 -90 -30 -150 -38 -22 -3 -42 -9 -45
-12 -5 -8 -84 -25 -180 -41 -30 -5 -93 -16 -140 -25 -47 -9 -124 -20 -172 -25
-49 -5 -93 -12 -100 -16 -59 -37 -1428 -36 -1487 0 -7 5 -61 12 -120 17 -58 4
-153 15 -211 23 -58 9 -136 19 -175 22 -38 4 -74 10 -80 14 -5 4 -39 11 -75
15 -36 4 -69 11 -75 15 -5 4 -35 10 -65 13 -72 8 -176 30 -186 39 -4 5 -26 8
-48 8 -23 1 -52 7 -66 15 -14 8 -42 14 -62 15 -20 0 -40 4 -43 10 -3 5 -23 10
-44 10 -20 0 -46 7 -57 15 -10 8 -34 15 -52 15 -18 0 -40 4 -50 9 -29 16 -119
41 -146 41 -14 0 -26 5 -26 10 0 6 -9 10 -20 10 -11 0 -37 6 -57 14 -21 7 -65
22 -98 32 -33 10 -64 22 -70 26 -5 4 -21 8 -36 8 -15 0 -32 7 -39 15 -7 8 -25
15 -41 15 -15 0 -31 5 -34 10 -3 6 -19 10 -36 10 -16 0 -29 4 -29 10 0 5 -12
12 -27 16 -29 6 -85 28 -115 44 -10 6 -25 10 -33 10 -8 0 -23 4 -33 9 -43 24
-87 41 -102 41 -10 0 -20 7 -24 15 -3 8 -16 15 -30 15 -14 0 -28 5 -31 10 -3
6 -14 10 -24 10 -10 0 -24 7 -31 15 -7 8 -23 15 -36 15 -13 0 -24 5 -24 10 0
6 -5 10 -11 10 -12 0 -37 11 -166 71 -46 22 -87 39 -93 39 -5 0 -10 5 -10 10
0 6 -8 10 -19 10 -10 0 -24 7 -31 15 -7 8 -20 15 -29 16 -9 0 -29 9 -46 20
-16 10 -37 21 -45 25 -8 3 -22 9 -30 14 -8 5 -31 17 -50 27 -19 9 -37 19 -40
22 -3 4 -36 22 -75 41 -38 19 -72 38 -75 41 -3 4 -15 9 -27 13 -13 4 -23 12
-23 17 0 5 -7 9 -15 9 -8 0 -15 5 -15 10 0 6 -9 10 -20 10 -11 0 -23 7 -26 15
-4 8 -13 15 -21 15 -8 0 -29 10 -46 23 -18 12 -48 30 -67 41 -19 10 -49 29
-67 42 -17 13 -36 24 -42 24 -6 0 -11 4 -11 9 0 5 -8 11 -17 15 -19 6 -54 27
-63 37 -3 3 -21 14 -40 25 -33 18 -46 27 -73 49 -7 6 -24 16 -39 24 -14 7 -39
25 -55 40 -16 14 -42 33 -59 41 -16 8 -38 24 -49 35 -11 12 -27 24 -35 28 -27
12 -55 32 -77 55 -12 12 -26 22 -30 22 -5 0 -20 11 -35 25 -15 14 -29 25 -32
25 -3 0 -17 11 -32 25 -15 14 -30 25 -35 25 -4 0 -27 18 -50 40 -24 22 -47 40
-52 40 -4 0 -18 11 -31 25 -13 14 -26 25 -30 25 -6 0 -45 31 -78 63 -10 9 -21
17 -24 17 -4 0 -21 16 -40 35 -18 19 -35 35 -37 35 -5 0 -45 33 -103 85 -125
113 -204 185 -238 218 -21 20 -40 37 -42 37 -9 0 -294 291 -294 300 0 6 -4 10
-8 10 -11 0 -38 26 -89 86 -22 27 -62 71 -87 99 -25 27 -46 53 -46 57 0 5 -7
8 -15 8 -8 0 -15 5 -15 10 0 6 -12 23 -28 38 -15 15 -43 47 -62 72 -19 24 -46
56 -60 70 -14 14 -44 52 -68 83 -23 31 -47 57 -52 57 -6 0 -10 7 -10 15 0 8
-3 15 -7 15 -5 0 -24 23 -43 50 -19 27 -38 50 -42 50 -5 0 -8 7 -8 15 0 8 -5
15 -10 15 -6 0 -14 8 -17 17 -4 10 -17 27 -30 39 -13 12 -23 26 -23 32 0 6 -3
12 -8 14 -4 2 -22 27 -41 56 -18 28 -37 52 -42 52 -5 0 -9 7 -9 15 0 9 -7 18
-15 21 -8 4 -15 12 -15 20 0 8 -4 14 -10 14 -5 0 -10 5 -10 10 0 6 -18 35 -40
65 -22 30 -40 59 -40 65 0 5 -4 10 -9 10 -5 0 -12 11 -15 25 -4 14 -11 25 -16
25 -6 0 -10 7 -10 15 0 8 -4 15 -10 15 -5 0 -10 9 -10 20 0 25 11 25 38 0 12
-11 28 -20 37 -20 8 0 15 -4 15 -10 0 -5 17 -17 38 -26 20 -10 41 -24 45 -31
4 -7 17 -13 27 -13 11 0 20 -4 20 -8 0 -5 17 -17 37 -28 21 -10 44 -25 51 -31
7 -7 20 -13 28 -13 8 0 14 -4 14 -10 0 -5 7 -10 15 -10 8 0 15 -4 15 -10 0 -5
11 -12 25 -16 14 -3 25 -10 25 -15 0 -5 9 -9 20 -9 10 0 23 -6 27 -12 10 -16
49 -38 67 -38 8 0 16 -7 20 -15 3 -8 15 -15 26 -15 11 0 20 -4 20 -10 0 -5 11
-12 25 -16 14 -3 25 -10 25 -15 0 -5 7 -9 15 -9 9 0 33 -11 55 -25 22 -14 44
-25 50 -25 5 0 10 -4 10 -8 0 -9 70 -42 88 -42 7 0 12 -4 12 -9 0 -5 10 -13
23 -17 12 -4 24 -9 27 -13 9 -11 71 -41 85 -41 7 0 15 -3 17 -7 2 -5 20 -16
40 -25 21 -10 55 -26 75 -35 21 -10 40 -21 41 -25 2 -5 15 -8 28 -8 13 0 24
-4 24 -9 0 -5 10 -13 23 -16 36 -11 86 -35 92 -45 3 -6 14 -10 23 -10 15 0 81
-29 154 -66 14 -8 33 -14 42 -14 9 0 16 -4 16 -10 0 -5 8 -10 18 -10 9 0 40
-11 67 -25 28 -13 57 -25 66 -25 9 0 22 -7 29 -15 7 -8 23 -15 36 -15 12 0 26
-4 29 -10 3 -5 17 -10 29 -10 13 0 29 -7 36 -15 7 -8 25 -15 41 -15 15 0 30
-4 33 -9 7 -10 97 -41 120 -41 9 0 16 -4 16 -10 0 -5 8 -10 18 -10 9 0 30 -7
46 -15 15 -8 36 -15 46 -15 10 0 31 -7 46 -15 16 -8 39 -15 52 -15 12 0 22 -4
22 -10 0 -5 15 -10 33 -10 17 0 41 -7 51 -15 11 -8 32 -15 47 -15 15 0 30 -4
33 -9 3 -5 20 -11 38 -14 18 -2 47 -9 63 -15 17 -6 57 -18 90 -27 33 -9 68
-20 77 -26 10 -5 36 -9 57 -9 22 0 42 -4 45 -9 4 -5 29 -12 56 -16 27 -4 52
-11 56 -16 3 -5 24 -9 47 -9 23 -1 53 -7 67 -15 14 -8 46 -14 72 -15 26 0 50
-4 53 -10 3 -5 26 -10 51 -10 25 0 55 -5 67 -12 12 -6 51 -15 87 -19 36 -5
108 -15 160 -24 104 -17 213 -28 420 -45 74 -5 160 -15 191 -20 72 -13 698
-13 786 0 38 5 124 14 193 20 187 16 285 27 390 45 52 8 120 19 150 23 30 4
61 11 68 16 13 8 79 20 182 33 25 3 54 12 65 19 11 8 36 14 57 14 20 0 39 4
42 9 4 5 25 12 49 16 23 4 47 11 52 15 6 4 26 10 45 13 61 9 130 30 130 39 0
4 13 8 28 8 16 0 37 7 48 15 10 8 31 15 46 15 15 0 30 5 33 10 3 6 17 10 30
10 13 0 30 7 39 15 8 8 24 15 35 15 12 0 29 4 39 9 39 22 86 41 98 41 7 0 34
11 61 24 70 34 155 72 181 80 12 4 22 12 22 17 0 5 11 9 25 9 14 0 25 5 25 10
0 6 9 10 19 10 11 0 22 4 25 9 3 5 34 24 68 41 35 18 65 36 68 40 3 4 15 10
27 14 35 11 42 56 7 56 -8 0 -14 5 -14 10 0 6 -9 10 -20 10 -11 0 -20 7 -20
15 0 8 -7 15 -15 15 -19 0 -58 21 -68 38 -4 6 -13 12 -20 12 -7 0 -24 11 -39
25 -15 14 -33 25 -40 25 -7 0 -22 10 -33 23 -11 12 -36 31 -55 41 -19 11 -46
30 -60 43 -14 13 -37 29 -52 36 -16 6 -28 18 -28 24 0 7 -5 13 -10 13 -10 0
-22 8 -55 38 -7 6 -17 12 -21 12 -4 0 -17 11 -30 25 -13 14 -27 25 -32 25 -6
0 -12 7 -16 15 -3 8 -12 15 -21 15 -8 0 -15 5 -15 10 0 6 -7 10 -15 10 -8 0
-15 7 -15 15 0 8 -6 15 -13 15 -7 0 -19 9 -27 21 -8 11 -31 30 -50 42 -19 12
-49 36 -66 54 -17 18 -36 33 -43 33 -6 0 -11 6 -11 13 0 7 -12 20 -27 29 -29
17 -45 31 -178 153 -44 41 -93 84 -110 97 -16 12 -62 55 -102 95 -40 40 -77
73 -83 73 -5 0 -10 7 -10 15 0 8 -4 15 -9 15 -27 0 -961 934 -961 960 0 6 -6
10 -13 10 -8 0 -20 11 -27 25 -7 14 -19 25 -27 25 -7 0 -13 6 -13 13 0 8 -11
20 -25 27 -14 7 -25 17 -25 22 0 5 -35 45 -77 88 -43 44 -94 98 -113 121 -19
23 -59 65 -87 95 -29 29 -53 57 -53 63 0 6 -5 11 -11 11 -11 0 -39 24 -39 34
0 3 -24 29 -52 59 -64 64 -128 139 -128 150 0 4 -7 7 -15 7 -8 0 -15 4 -15 10
0 5 -25 35 -55 66 -31 31 -72 77 -93 103 -20 25 -58 67 -84 93 -27 27 -48 50
-48 53 0 3 -17 22 -37 43 -21 21 -54 58 -73 81 -19 24 -55 65 -80 91 -25 27
-58 63 -73 82 -69 81 -115 133 -154 174 -24 25 -43 47 -43 50 0 6 -14 23 -85
98 -22 23 -53 57 -68 76 -69 85 -94 115 -122 144 -17 17 -44 49 -60 71 -16 22
-40 50 -52 61 -13 12 -23 24 -23 28 0 11 -27 36 -39 36 -6 0 -11 5 -11 10 0
10 -8 22 -37 55 -7 7 -13 18 -13 24 0 6 -7 11 -15 11 -8 0 -15 4 -15 10 0 5
-17 28 -37 49 -45 47 -63 68 -63 75 0 3 -19 25 -42 50 -24 24 -63 70 -88 101
-25 32 -56 69 -70 84 -14 15 -38 45 -54 66 -16 22 -40 51 -53 64 -13 13 -23
28 -23 32 0 5 -7 9 -15 9 -8 0 -15 5 -15 10 0 6 -11 23 -25 38 -14 15 -25 30
-25 35 0 4 -16 23 -35 41 -19 19 -35 37 -35 40 0 3 -8 14 -17 24 -37 38 -63
72 -63 82 0 6 -7 10 -15 10 -8 0 -15 6 -15 14 0 8 -3 16 -8 18 -4 2 -23 23
-42 48 -19 25 -49 60 -67 78 -18 18 -33 35 -33 38 0 5 -12 20 -37 49 -7 7 -13
18 -13 24 0 6 -7 11 -15 11 -8 0 -15 5 -15 11 0 7 -11 22 -25 35 -14 13 -25
27 -25 31 0 5 -20 30 -44 57 -25 26 -53 60 -63 73 -10 14 -27 36 -38 48 -27
32 -44 52 -85 105 -19 25 -38 47 -42 48 -5 2 -8 10 -8 18 0 8 -6 14 -13 14 -8
0 -22 16 -33 35 -10 19 -22 35 -26 35 -5 0 -8 7 -8 15 0 8 -4 15 -10 15 -5 0
-35 34 -65 75 -31 41 -60 75 -65 75 -6 0 -10 4 -10 9 0 6 -11 22 -25 37 -14
15 -25 31 -25 35 0 5 -18 27 -40 49 -22 22 -40 43 -40 48 0 4 -11 19 -25 34
-14 15 -25 32 -25 38 0 5 -6 10 -13 10 -13 0 -43 58 -34 67 4 3 19 -7 35 -23
32 -31 42 -40 112 -94 25 -19 47 -38 48 -42 2 -5 10 -8 18 -8 8 0 14 -7 14
-15 0 -8 6 -15 14 -15 8 0 16 -3 18 -7 2 -5 25 -26 51 -47 27 -21 56 -47 65
-56 10 -9 35 -30 57 -46 22 -16 49 -39 61 -51 12 -13 24 -23 28 -23 4 0 13 -6
20 -12 36 -35 77 -68 84 -68 4 0 14 -9 22 -21 8 -11 31 -30 50 -42 19 -12 50
-36 67 -54 18 -18 37 -33 42 -33 5 0 11 -3 13 -8 2 -4 23 -23 48 -42 25 -19
55 -45 67 -57 12 -13 27 -23 33 -23 5 0 10 -4 10 -10 0 -5 7 -10 15 -10 9 0
18 -7 21 -15 4 -8 12 -15 18 -15 7 0 18 -10 25 -23 7 -12 24 -28 39 -35 15 -6
47 -30 69 -52 23 -22 46 -40 51 -40 5 0 28 -18 51 -40 23 -22 46 -40 51 -40 6
0 10 -4 10 -8 0 -4 12 -15 28 -24 15 -9 47 -35 70 -57 24 -23 47 -41 51 -41 5
0 20 -11 35 -25 15 -14 31 -25 37 -25 5 0 9 -3 9 -7 0 -5 23 -24 50 -43 27
-19 50 -38 50 -42 0 -5 4 -8 10 -8 10 0 44 -26 82 -62 10 -10 23 -18 28 -18 6
0 10 -3 10 -7 0 -5 23 -24 50 -43 27 -19 50 -38 50 -42 0 -5 6 -8 14 -8 8 0
16 -3 18 -8 2 -4 23 -23 48 -42 25 -19 56 -45 70 -57 14 -13 30 -23 37 -23 7
0 13 -4 13 -10 0 -5 7 -10 15 -10 8 0 15 -7 15 -15 0 -8 5 -15 10 -15 6 0 23
-11 38 -25 15 -14 30 -25 35 -25 4 0 18 -11 31 -25 13 -14 28 -25 35 -25 6 0
11 -4 11 -9 0 -5 8 -12 18 -15 9 -3 37 -24 62 -46 25 -22 49 -40 53 -40 5 0
14 -6 21 -12 30 -29 67 -58 74 -58 4 0 27 -18 52 -40 25 -22 49 -40 54 -40 5
0 19 -11 32 -25 13 -14 26 -25 29 -25 6 0 20 -11 50 -37 7 -7 18 -13 24 -13 6
0 11 -4 11 -8 0 -4 21 -21 46 -37 25 -16 60 -42 78 -57 17 -15 35 -28 40 -28
5 0 19 -11 32 -25 13 -14 27 -25 31 -25 5 0 20 -11 35 -25 15 -14 32 -25 38
-25 5 0 10 -4 10 -10 0 -5 10 -12 23 -15 13 -4 31 -17 41 -31 11 -13 25 -24
32 -24 8 0 14 -4 14 -10 0 -5 7 -10 15 -10 9 0 18 -7 21 -15 4 -8 12 -15 20
-15 8 0 14 -4 14 -9 0 -5 8 -12 18 -15 9 -3 35 -21 57 -41 22 -19 45 -35 50
-35 6 0 22 -11 37 -25 15 -14 30 -25 33 -25 7 0 72 -47 93 -67 7 -7 18 -13 23
-13 6 0 20 -11 33 -25 13 -14 29 -25 35 -25 7 0 22 -10 34 -23 12 -12 39 -31
60 -42 20 -11 37 -23 37 -27 0 -5 7 -8 15 -8 8 0 15 -3 15 -8 0 -4 16 -16 35
-26 19 -11 35 -23 35 -27 0 -4 10 -11 22 -14 11 -4 31 -18 43 -31 12 -13 29
-24 36 -24 8 0 26 -11 41 -25 15 -14 29 -25 32 -25 8 0 101 -64 104 -72 2 -5
10 -8 18 -8 8 0 14 -4 14 -10 0 -5 4 -10 9 -10 9 0 132 -79 141 -91 3 -3 15
-9 28 -13 12 -4 22 -12 22 -17 0 -5 6 -9 14 -9 8 0 16 -7 20 -15 3 -8 15 -15
26 -15 11 0 20 -4 20 -10 0 -5 6 -10 14 -10 8 0 16 -7 20 -15 3 -8 10 -15 16
-15 6 0 26 -11 44 -25 18 -14 37 -25 41 -25 4 0 23 -11 41 -25 18 -14 37 -25
43 -25 6 0 11 -4 11 -10 0 -5 6 -10 14 -10 8 0 21 -6 28 -12 20 -19 50 -38 71
-44 9 -4 17 -10 17 -14 0 -4 11 -11 25 -14 14 -4 25 -11 25 -16 0 -6 7 -10 15
-10 8 0 15 -4 15 -10 0 -5 11 -12 25 -16 14 -3 25 -10 25 -15 0 -5 8 -9 17 -9
9 0 24 -7 33 -15 26 -23 115 -66 118 -56 1 4 -87 98 -198 209 -110 110 -200
206 -200 211 0 6 -7 11 -15 11 -8 0 -15 5 -15 11 0 14 -25 39 -39 39 -6 0 -11
5 -11 10 0 12 -9 24 -52 71 -16 16 -28 32 -28 35 0 10 -28 34 -39 34 -6 0 -11
7 -11 15 0 8 -4 15 -10 15 -5 0 -10 4 -10 9 0 5 -12 23 -27 39 -67 71 -103
114 -103 123 0 5 -7 9 -15 9 -8 0 -15 6 -15 14 0 8 -3 16 -7 18 -5 2 -25 24
-45 49 -21 26 -55 66 -77 90 -22 24 -41 47 -41 51 0 4 -14 21 -30 38 -16 17
-30 33 -30 35 0 5 -35 48 -62 77 -10 10 -18 21 -18 24 0 3 -16 21 -35 40 -19
18 -35 37 -35 41 0 5 -11 20 -25 35 -14 15 -25 29 -25 32 0 2 -16 21 -35 42
-19 20 -35 40 -35 45 0 4 -13 21 -30 37 -16 17 -30 33 -30 36 0 6 -32 46 -62
78 -10 10 -18 23 -18 28 0 6 -3 10 -7 10 -5 0 -24 23 -43 50 -19 27 -38 50
-42 50 -5 0 -8 6 -8 14 0 8 -3 16 -8 18 -4 2 -23 23 -42 48 -19 25 -45 55 -56
67 -12 12 -28 35 -35 52 -8 17 -20 31 -26 31 -7 0 -13 5 -13 10 0 6 -11 23
-25 38 -14 15 -25 30 -25 35 0 4 -11 18 -25 31 -14 13 -25 26 -25 30 0 7 -10
20 -37 51 -7 7 -13 18 -13 24 0 6 -7 11 -15 11 -8 0 -15 7 -15 15 0 8 -4 15
-10 15 -5 0 -10 6 -10 13 0 7 -18 32 -40 56 -22 23 -40 46 -40 49 0 4 -11 19
-25 34 -14 15 -25 29 -25 32 0 3 -11 17 -25 32 -14 15 -25 32 -25 39 0 7 -11
21 -25 31 -14 10 -25 23 -25 27 0 10 -61 90 -72 95 -5 2 -8 8 -8 13 0 9 -8 21
-37 54 -7 7 -13 18 -13 24 0 6 -7 11 -15 11 -8 0 -15 7 -15 15 0 8 -4 15 -10
15 -5 0 -10 6 -10 13 0 6 -14 28 -31 47 -17 19 -37 47 -45 62 -8 15 -22 33
-31 40 -10 7 -27 29 -37 48 -11 19 -30 45 -43 57 -13 12 -23 27 -23 33 0 5 -4
10 -10 10 -5 0 -10 7 -10 15 0 9 -7 18 -15 21 -8 4 -15 12 -15 20 0 8 -4 14
-8 14 -4 0 -16 15 -27 33 -10 17 -28 41 -39 52 -12 11 -27 31 -34 45 -7 14
-26 40 -42 59 -17 18 -30 40 -30 47 0 8 -4 14 -10 14 -5 0 -10 7 -10 15 0 8
-7 15 -15 15 -8 0 -15 5 -15 10 0 10 -8 22 -38 55 -6 7 -12 18 -12 24 0 6 -4
11 -10 11 -5 0 -10 7 -10 15 0 8 -5 15 -10 15 -6 0 -15 11 -20 25 -5 14 -14
25 -20 25 -5 0 -10 5 -10 10 0 10 -8 22 -38 55 -6 7 -12 16 -12 20 0 3 -11 18
-25 33 -14 15 -25 31 -25 37 0 5 -10 19 -22 30 -13 11 -32 36 -42 55 -11 19
-30 46 -43 60 -13 14 -29 37 -36 53 -6 15 -18 27 -24 27 -7 0 -13 7 -13 15 0
8 -3 15 -8 15 -4 0 -16 17 -27 38 -11 20 -30 48 -42 62 -13 14 -23 29 -23 34
0 5 -11 19 -25 32 -14 13 -25 27 -25 31 0 5 -10 19 -23 33 -13 14 -26 32 -30
40 -11 25 -31 55 -42 62 -5 4 -6 11 -1 15 5 4 11 2 13 -4 3 -7 11 -13 19 -13
8 0 14 -5 14 -10 0 -11 84 -96 159 -161 22 -20 41 -42 41 -48 0 -6 4 -11 9
-11 9 0 82 -64 163 -142 21 -21 40 -38 43 -38 3 0 38 -33 79 -74 41 -41 79
-75 84 -77 11 -4 115 -97 191 -169 25 -25 63 -56 84 -70 20 -14 37 -31 37 -37
0 -7 5 -13 11 -13 7 0 26 -15 44 -33 18 -18 52 -48 76 -67 24 -19 58 -49 76
-67 17 -18 34 -33 38 -33 3 0 23 -16 43 -36 20 -20 49 -43 64 -52 16 -9 28
-22 28 -29 0 -7 7 -13 15 -13 8 0 15 -4 15 -10 0 -5 7 -10 15 -10 8 0 15 -6
15 -13 0 -7 13 -20 29 -30 16 -10 46 -33 65 -52 20 -19 39 -35 42 -35 2 0 24
-18 46 -40 23 -22 46 -40 50 -40 5 0 30 -20 56 -45 26 -25 68 -60 94 -78 26
-18 48 -38 48 -44 0 -7 6 -13 14 -13 8 0 16 -3 18 -8 2 -4 23 -23 48 -42 25
-19 54 -43 65 -54 11 -10 45 -37 75 -60 30 -22 64 -51 76 -63 12 -13 26 -23
33 -23 6 0 11 -5 11 -10 0 -6 8 -14 17 -17 10 -4 27 -17 39 -30 12 -13 24 -23
28 -23 4 0 21 -13 38 -30 16 -16 33 -30 37 -30 5 0 24 -15 43 -32 38 -36 104
-88 112 -88 2 0 21 -16 42 -35 20 -19 40 -35 45 -35 5 0 27 -18 49 -40 22 -22
43 -40 46 -40 5 0 20 -11 49 -37 7 -7 16 -13 18 -13 3 0 25 -18 48 -40 24 -22
48 -40 55 -40 6 0 20 -11 30 -25 10 -14 24 -25 30 -25 7 0 14 -7 18 -15 3 -8
12 -15 21 -15 8 0 15 -4 15 -10 0 -5 4 -10 10 -10 5 0 23 -13 40 -30 17 -16
43 -36 58 -44 15 -8 34 -24 42 -35 8 -12 20 -21 27 -21 7 0 13 -4 13 -9 0 -5
8 -12 18 -15 10 -4 29 -16 42 -29 14 -12 49 -41 80 -63 30 -23 68 -54 84 -68
16 -14 32 -26 36 -26 3 0 15 -8 26 -18 38 -34 102 -82 111 -82 4 0 17 -11 27
-25 10 -14 24 -25 30 -25 6 0 22 -10 36 -23 14 -12 46 -38 73 -57 26 -18 47
-37 47 -42 0 -4 7 -8 15 -8 8 0 15 -4 15 -10 0 -5 6 -10 14 -10 8 0 16 -7 20
-15 3 -8 10 -15 16 -15 6 0 21 -11 34 -25 13 -14 28 -25 35 -25 6 0 11 -4 11
-9 0 -5 8 -12 18 -15 10 -4 27 -14 38 -24 10 -10 64 -51 119 -92 55 -41 109
-82 119 -92 11 -10 28 -20 38 -24 10 -3 18 -10 18 -15 0 -5 5 -9 11 -9 7 0 22
-11 35 -25 13 -14 27 -25 31 -25 5 0 20 -11 35 -25 15 -14 30 -25 33 -25 7 0
15 -7 64 -49 18 -16 49 -37 67 -47 19 -10 34 -22 34 -26 0 -5 7 -8 15 -8 8 0
15 -6 15 -13 0 -6 12 -18 28 -24 15 -7 39 -24 54 -38 15 -14 31 -25 35 -25 4
0 28 -18 53 -40 25 -22 51 -40 58 -40 7 0 15 -7 18 -15 4 -8 10 -15 16 -15 5
0 21 -11 36 -25 15 -14 32 -25 39 -25 7 0 13 -4 13 -10 0 -5 7 -10 15 -10 8 0
15 -6 15 -14 0 -7 8 -16 18 -20 24 -8 54 -28 73 -48 9 -10 20 -18 24 -18 9 0
89 -62 93 -72 2 -5 9 -8 15 -8 7 0 24 -11 39 -25 15 -14 32 -25 38 -25 5 0 10
-3 10 -7 0 -5 18 -19 40 -33 22 -13 40 -28 40 -32 0 -4 6 -8 13 -8 7 0 24 -11
39 -25 15 -14 32 -25 38 -25 5 0 10 -4 10 -9 0 -5 8 -12 18 -15 10 -4 36 -22
58 -41 21 -19 45 -35 52 -35 7 0 15 -7 18 -15 4 -8 12 -15 20 -15 8 0 14 -4
14 -9 0 -5 8 -12 18 -15 9 -3 35 -21 57 -41 22 -19 46 -35 53 -35 7 0 15 -7
18 -15 4 -8 12 -15 20 -15 8 0 14 -4 14 -10 0 -5 6 -10 13 -10 7 0 23 -10 37
-22 14 -13 49 -39 78 -58 28 -19 52 -38 52 -42 0 -5 6 -8 13 -8 7 0 24 -11 39
-25 15 -14 30 -25 33 -25 3 0 30 -18 60 -40 30 -22 58 -40 64 -40 5 0 11 -6
14 -13 7 -19 75 -50 93 -43 8 3 14 16 14 30 0 14 5 28 10 31 6 3 10 19 10 34
0 16 7 34 15 41 8 7 15 25 15 40 0 14 3 30 6 33 11 11 43 110 44 133 0 12 7
35 15 50 8 16 15 38 15 49 0 12 4 25 9 30 5 6 11 28 14 50 8 59 31 153 40 161
4 4 7 25 7 46 0 22 5 49 12 61 12 21 19 64 37 212 5 39 13 83 20 98 6 16 11
57 11 92 0 35 4 74 10 87 28 65 52 822 31 983 -6 44 -15 134 -21 200 -22 259
-26 291 -35 305 -5 8 -12 48 -17 90 -12 122 -25 206 -33 219 -4 7 -11 36 -15
64 -5 29 -16 84 -25 122 -9 39 -19 88 -22 110 -3 22 -9 45 -13 50 -4 6 -11 29
-15 52 -4 24 -11 45 -16 49 -5 3 -9 21 -9 40 0 19 -4 42 -9 52 -15 30 -41 119
-41 139 0 11 -7 28 -15 39 -8 10 -15 31 -15 46 0 15 -4 30 -10 33 -5 3 -10 18
-10 33 0 15 -7 36 -15 46 -8 11 -15 32 -15 48 0 15 -4 28 -10 28 -5 0 -10 9
-10 21 0 11 -6 33 -14 47 -8 15 -22 53 -32 85 -10 31 -22 57 -26 57 -4 0 -8
11 -8 25 0 14 -4 33 -9 43 -24 44 -41 87 -41 104 0 10 -7 21 -15 24 -8 4 -15
17 -15 29 0 13 -4 27 -10 30 -5 3 -10 17 -10 29 0 13 -7 29 -15 36 -8 7 -15
23 -15 36 0 13 -4 24 -8 24 -8 0 -27 39 -57 123 -10 26 -22 47 -26 47 -5 0 -9
7 -9 15 0 18 -32 89 -42 93 -5 2 -8 12 -8 23 0 11 -7 22 -15 25 -8 4 -15 17
-15 30 0 13 -4 24 -10 24 -5 0 -10 8 -10 19 0 10 -7 24 -15 31 -8 7 -15 21
-15 31 0 11 -4 19 -9 19 -5 0 -12 11 -15 25 -4 14 -11 25 -16 25 -6 0 -10 8
-11 18 0 9 -9 31 -20 47 -10 17 -22 37 -26 45 -4 8 -13 21 -20 28 -7 7 -13 22
-13 33 0 10 -4 19 -10 19 -5 0 -10 9 -10 20 0 11 -4 20 -9 20 -5 0 -18 18 -29
39 -32 60 -46 86 -53 91 -4 3 -9 15 -13 28 -4 12 -12 22 -17 22 -5 0 -9 7 -9
15 0 8 -4 15 -10 15 -5 0 -10 6 -10 14 0 8 -6 21 -12 28 -19 20 -38 50 -44 71
-4 9 -10 17 -14 17 -4 0 -10 8 -14 18 -6 18 -27 53 -37 62 -3 3 -14 20 -24 38
-11 17 -22 32 -26 32 -4 0 -9 8 -13 18 -7 22 -25 49 -53 81 -13 14 -23 31 -23
38 0 7 -4 13 -9 13 -5 0 -23 23 -40 50 -17 28 -26 50 -21 50 6 0 10 -4 10 -10z"/>
<path d="M10090 10380 c0 -5 5 -10 10 -10 6 0 10 5 10 10 0 6 -4 10 -10 10 -5
0 -10 -4 -10 -10z"/>
</g>
</svg>
